#!OML:ASF H:\Dans Jumps\Project 1\Capture day 1\Session 1\subject.ASF
:FULLY-SPECIFIED
:DEGREES
536
root 0.458116 17.7065 5.51143 6.80213 2.77616 -1.53794
lowerback -0.582903 -0.307969 -0.238229
upperback 1.75408 -0.445797 2.11387
thorax 2.14425 -0.246213 2.29268
lowerneck -15.5899 -0.188262 -2.37424
upperneck 6.44265 0.143116 0.837437
head 4.44307 0.0613707 0.653168
rclavicle -9.39258e-015 -1.27222e-014
rhumerus -17.5273 -18.7906 -84.7651
rradius 19.6564
rwrist 38.504
rhand -20.9395 -26.2524
rfingers 7.12502
rthumb 5.43274 -56.1628
lclavicle -9.39258e-015 -1.27222e-014
lhumerus -14.1722 -0.304338 91.3723
lradius 15.0703
lwrist -3.1641
lhand -26.1831 -5.35487
lfingers 7.12502
lthumb 0.368909 24.6246
rfemur -16.2429 -1.5293 20.8261
rtibia 22.588
rfoot -11.7529 -4.79279
rtoes 11.0143
lfemur -16.8213 4.1329 -18.1127
ltibia 20.7163
lfoot -9.4701 2.14354
ltoes -2.2645
537
root 0.458945 17.7072 5.51664 6.7809 2.75372 -1.53627
lowerback -0.632461 -0.307648 -0.239818
upperback 1.73932 -0.445679 2.11955
thorax 2.15702 -0.246225 2.29922
lowerneck -15.6048 -0.187227 -2.38429
upperneck 6.51788 0.144157 0.863941
head 4.4688 0.062909 0.663283
rclavicle -9.39258e-015 2.66371e-014
rhumerus -17.5283 -18.6519 -84.8471
rradius 19.6864
rwrist 38.4296
rhand -20.8994 -26.2516
rfingers 7.12502
rthumb 5.47151 -56.161
lclavicle -9.39258e-015 2.66371e-014
lhumerus -14.1208 -1.13655 91.6624
lradius 15.477
lwrist -2.31563
lhand -26.2357 -5.44768
lfingers 7.12502
lthumb 0.31814 24.5318
rfemur -16.1813 -1.53134 20.8206
rtibia 22.5477
rfoot -11.7579 -4.77464
rtoes 11.0173
lfemur -16.7521 4.15154 -18.1148
ltibia 20.6727
lfoot -9.46985 2.14658
ltoes -2.27639
538
root 0.460178 17.7079 5.52218 6.75617 2.73333 -1.53261
lowerback -0.68341 -0.309182 -0.239035
upperback 1.72733 -0.448108 2.1236
thorax 2.17348 -0.247491 2.30268
lowerneck -15.6192 -0.185452 -2.39656
upperneck 6.59517 0.146102 0.89513
head 4.49508 0.0651347 0.675299
rclavicle 4.72114e-015 8.74653e-015
rhumerus -17.5336 -18.5212 -84.9219
rradius 19.711
rwrist 38.3561
rhand -20.8388 -26.2656
rfingers 7.12502
rthumb 5.53003 -56.1734
lclavicle 4.72114e-015 8.74653e-015
lhumerus -14.084 -1.96501 91.9478
lradius 15.8943
lwrist -1.4553
lhand -26.2916 -5.52356
lfingers 7.12502
lthumb 0.264146 24.456
rfemur -16.1131 -1.55052 20.8123
rtibia 22.506
rfoot -11.7645 -4.74305
rtoes 11.007
lfemur -16.6763 4.16693 -18.1204
ltibia 20.6285
lfoot -9.47045 2.1499
ltoes -2.27938
539
root 0.461651 17.7086 5.52802 6.72791 2.71379 -1.52992
lowerback -0.736793 -0.311973 -0.234814
upperback 1.71932 -0.452356 2.12682
thorax 2.19546 -0.249655 2.30329
lowerneck -15.6405 -0.182308 -2.40893
upperneck 6.67997 0.149619 0.930268
head 4.52477 0.0683694 0.688728
rclavicle 2.68359e-015 3.97569e-015
rhumerus -17.5421 -18.4052 -84.9893
rradius 19.731
rwrist 38.2922
rhand -20.7939 -26.2702
rfingers 7.12502
rthumb 5.5733 -56.177
lclavicle 2.68359e-015 3.97569e-015
lhumerus -14.0537 -2.7612 92.2236
lradius 16.309
lwrist -0.61821
lhand -26.3426 -5.59184
lfingers 7.12502
lthumb 0.214889 24.3878
rfemur -16.0386 -1.58083 20.8045
rtibia 22.4632
rfoot -11.7724 -4.70199
rtoes 10.9886
lfemur -16.5946 4.18109 -18.1259
ltibia 20.5844
lfoot -9.4729 2.15343
ltoes -2.27671
540
root 0.463332 17.7093 5.53391 6.69713 2.69324 -1.52519
lowerback -0.791724 -0.316063 -0.232127
upperback 1.71804 -0.458426 2.12904
thorax 2.2253 -0.252834 2.30367
lowerneck -15.6371 -0.180232 -2.41478
upperneck 6.7284 0.15072 0.956062
head 4.53927 0.0701584 0.697898
rclavicle 8.44835e-016 -4.77083e-015
rhumerus -17.5494 -18.2881 -85.0522
rradius 19.7521
rwrist 38.2244
rhand -20.7446 -26.2796
rfingers 7.12502
rthumb 5.6209 -56.185
lclavicle 8.44835e-016 -4.77083e-015
lhumerus -14.0128 -3.53877 92.4902
lradius 16.7064
lwrist 0.206235
lhand -26.3866 -5.63165
lfingers 7.12502
lthumb 0.172314 24.348
rfemur -15.9615 -1.61814 20.7938
rtibia 22.4216
rfoot -11.7812 -4.65438
rtoes 10.9637
lfemur -16.5102 4.19272 -18.1344
ltibia 20.5427
lfoot -9.47655 2.16046
ltoes -2.2738
541
root 0.465112 17.7097 5.53978 6.66213 2.67188 -1.52141
lowerback -0.843447 -0.32035 -0.228725
upperback 1.71866 -0.46479 2.13183
thorax 2.2553 -0.256164 2.30423
lowerneck -15.6391 -0.177949 -2.42656
upperneck 6.78637 0.152473 0.9907
head 4.55758 0.0726492 0.710864
rclavicle 9.93923e-016 2.98177e-014
rhumerus -17.5643 -18.1765 -85.1052
rradius 19.7751
rwrist 38.1611
rhand -20.7044 -26.283
rfingers 7.12502
rthumb 5.65978 -56.1874
lclavicle 9.93923e-016 2.98177e-014
lhumerus -13.9725 -4.27294 92.7471
lradius 17.084
lwrist 0.974372
lhand -26.4636 -5.74272
lfingers 7.12502
lthumb 0.0979485 24.237
rfemur -15.8806 -1.6569 20.7835
rtibia 22.3823
rfoot -11.7921 -4.60401
rtoes 10.9443
lfemur -16.4233 4.20203 -18.1417
ltibia 20.5066
lfoot -9.48277 2.17094
ltoes -2.26364
542
root 0.466748 17.7098 5.54533 6.62429 2.64742 -1.52072
lowerback -0.887569 -0.324115 -0.22569
upperback 1.71859 -0.470402 2.13617
thorax 2.28032 -0.259106 2.30665
lowerneck -15.6361 -0.17609 -2.43775
upperneck 6.84414 0.153487 1.02436
head 4.57504 0.0747282 0.72337
rclavicle -1.77912e-014 1.82882e-014
rhumerus -17.5928 -18.0601 -85.1489
rradius 19.807
rwrist 38.0898
rhand -20.6714 -26.2958
rfingers 7.12502
rthumb 5.69159 -56.1994
lclavicle -1.77912e-014 1.82882e-014
lhumerus -13.9359 -4.97107 92.9955
lradius 17.4407
lwrist 1.69198
lhand -26.5381 -5.86545
lfingers 7.12502
lthumb 0.0260612 24.1143
rfemur -15.8005 -1.68359 20.7764
rtibia 22.3471
rfoot -11.8037 -4.56129
rtoes 10.9415
lfemur -16.3385 4.2099 -18.1445
ltibia 20.4782
lfoot -9.49083 2.1867
ltoes -2.25201
543
root 0.46804 17.7097 5.5504 6.58404 2.62023 -1.5251
lowerback -0.921565 -0.327414 -0.223993
upperback 1.71558 -0.475286 2.1438
thorax 2.29662 -0.261671 2.31327
lowerneck -15.634 -0.174595 -2.45255
upperneck 6.91242 0.154309 1.06194
head 4.59593 0.0768232 0.737691
rclavicle 6.75868e-015 2.3059e-014
rhumerus -17.6356 -17.9507 -85.1805
rradius 19.8413
rwrist 38.0219
rhand -20.6335 -26.3197
rfingers 7.12502
rthumb 5.72818 -56.2223
lclavicle 6.75868e-015 2.3059e-014
lhumerus -13.9122 -5.61774 93.2362
lradius 17.7843
lwrist 2.34543
lhand -26.6331 -6.04225
lfingers 7.12502
lthumb -0.0657498 23.9375
rfemur -15.7228 -1.6915 20.7755
rtibia 22.316
rfoot -11.8156 -4.53409
rtoes 10.9462
lfemur -16.2585 4.21826 -18.1396
ltibia 20.459
lfoot -9.50068 2.20578
ltoes -2.24006
544
root 0.468965 17.7093 5.55507 6.54307 2.58908 -1.53394
lowerback -0.947163 -0.329443 -0.223194
upperback 1.70768 -0.478338 2.1537
thorax 2.30313 -0.263272 2.32282
lowerneck -15.6323 -0.175002 -2.47066
upperneck 6.99495 0.152884 1.10253
head 4.62136 0.0778544 0.753342
rclavicle -3.8266e-015 4.37326e-015
rhumerus -17.7002 -17.8422 -85.2006
rradius 19.8852
rwrist 37.9521
rhand -20.6151 -26.3348
rfingers 7.12502
rthumb 5.74595 -56.2369
lclavicle -3.8266e-015 4.37326e-015
lhumerus -13.9082 -6.21366 93.4703
lradius 18.1157
lwrist 2.93124
lhand -26.7362 -6.2516
lfingers 7.12502
lthumb -0.165337 23.7281
rfemur -15.6489 -1.6779 20.7801
rtibia 22.2888
rfoot -11.8265 -4.52286
rtoes 10.9591
lfemur -16.1841 4.22719 -18.1275
ltibia 20.4478
lfoot -9.51203 2.22887
ltoes -2.23139
545
root 0.469559 17.7088 5.55949 6.50206 2.55563 -1.54594
lowerback -0.968106 -0.330734 -0.22413
upperback 1.69673 -0.480293 2.1647
thorax 2.30385 -0.264314 2.33454
lowerneck -15.6384 -0.176288 -2.4888
upperneck 7.09522 0.15011 1.14586
head 4.65361 0.0783416 0.769808
rclavicle 5.86415e-015 -1.51076e-014
rhumerus -17.7773 -17.7675 -85.2074
rradius 19.9213
rwrist 37.9082
rhand -20.5988 -26.3414
rfingers 7.12502
rthumb 5.7617 -56.2431
lclavicle 5.86415e-015 -1.51076e-014
lhumerus -13.925 -6.74206 93.6968
lradius 18.4338
lwrist 3.43089
lhand -26.8393 -6.47145
lfingers 7.12502
lthumb -0.26488 23.5081
rfemur -15.5779 -1.64679 20.7892
rtibia 22.2636
rfoot -11.8367 -4.52649
rtoes 10.9701
lfemur -16.1142 4.23889 -18.1102
ltibia 20.4416
lfoot -9.52407 2.25285
ltoes -2.22582
546
root 0.470082 17.7083 5.56406 6.46108 2.52121 -1.55599
lowerback -0.990687 -0.331962 -0.227725
upperback 1.68538 -0.482085 2.17407
thorax 2.30509 -0.265307 2.34606
lowerneck -15.6392 -0.179715 -2.50349
upperneck 7.19612 0.143677 1.18814
head 4.68529 0.0770653 0.785093
rclavicle -2.03754e-015 -1.35174e-014
rhumerus -17.8667 -17.7188 -85.203
rradius 19.9513
rwrist 37.8813
rhand -20.6049 -26.3105
rfingers 7.12502
rthumb 5.75578 -56.2123
lclavicle -2.03754e-015 -1.35174e-014
lhumerus -13.9602 -7.20961 93.915
lradius 18.7394
lwrist 3.85184
lhand -26.913 -6.62595
lfingers 7.12502
lthumb -0.336031 23.3535
rfemur -15.507 -1.61035 20.7964
rtibia 22.2391
rfoot -11.8467 -4.53488
rtoes 10.9755
lfemur -16.0442 4.25331 -18.0947
ltibia 20.4358
lfoot -9.53782 2.27573
ltoes -2.22408
547
root 0.470676 17.7078 5.5691 6.41776 2.48723 -1.56609
lowerback -1.01767 -0.33319 -0.22911
upperback 1.67565 -0.483956 2.18146
thorax 2.31044 -0.266314 2.35429
lowerneck -15.6446 -0.185596 -2.51913
upperneck 7.30879 0.133759 1.2342
head 4.72147 0.074279 0.801467
rclavicle -5.36719e-015 9.93923e-015
rhumerus -17.9656 -17.6943 -85.1888
rradius 19.9728
rwrist 37.87
rhand -20.6014 -26.2818
rfingers 7.12502
rthumb 5.7592 -56.1835
lclavicle -5.36719e-015 9.93923e-015
lhumerus -14.0126 -7.61222 94.1246
lradius 19.0289
lwrist 4.18797
lhand -26.9651 -6.7308
lfingers 7.12502
lthumb -0.386396 23.2486
rfemur -15.4313 -1.57583 20.8035
rtibia 22.214
rfoot -11.8579 -4.5421
rtoes 10.9751
lfemur -15.9677 4.27099 -18.0792
ltibia 20.426
lfoot -9.55338 2.29585
ltoes -2.22571
